<?xml version="1.0" standalone="no"?>
<!DOCTYPE svg PUBLIC "-//W3C//DTD SVG 20010904//EN"
 "http://www.w3.org/TR/2001/REC-SVG-20010904/DTD/svg10.dtd">
<svg version="1.0" xmlns="http://www.w3.org/2000/svg"
 width="342.000000pt" height="230.000000pt" viewBox="0 0 342.000000 230.000000"
 preserveAspectRatio="xMidYMid meet">

<g transform="translate(0.000000,230.000000) scale(0.100000,-0.100000)"
fill="#000000" stroke="none">
<path d="M1230 1861 c14 -11 30 -21 35 -21 11 0 -7 14 -40 31 -13 7 -12 3 5
-10z"/>
<path d="M1725 1870 c-91 -20 -91 -27 0 -26 77 1 96 -2 131 -23 50 -28 58 -60
43 -165 -12 -85 -31 -120 -89 -165 l-45 -34 38 7 37 7 0 -38 c0 -53 -17 -165
-30 -199 l-11 -29 -34 64 c-19 35 -40 71 -47 80 -7 10 2 2 20 -18 17 -19 32
-30 32 -24 0 15 -48 85 -72 106 -29 24 -12 21 25 -5 l32 -22 -30 36 c-16 20
-34 35 -40 34 -24 -6 -76 -93 -98 -162 l-24 -75 -16 43 c-21 58 -34 112 -42
180 -3 31 -12 62 -20 68 -27 22 -57 114 -62 190 -6 87 -8 85 85 100 59 10 148
-2 197 -27 21 -11 26 -11 18 -2 -22 22 -15 29 33 29 29 0 43 4 39 11 -4 6 -34
9 -68 8 -40 -1 -75 4 -99 15 -82 36 -245 8 -259 -44 -21 -74 -2 -197 40 -275
16 -27 31 -74 35 -103 10 -79 53 -189 99 -254 22 -32 44 -58 48 -58 11 0 16
26 23 108 6 64 29 155 45 181 8 12 12 13 25 1 9 -7 14 -15 12 -18 -3 -2 6 -25
19 -51 21 -41 42 -110 60 -194 9 -43 26 -29 66 51 40 80 59 157 59 238 0 37 8
68 27 106 23 45 28 69 31 153 2 55 -1 112 -6 126 -20 51 -141 88 -227 69z"/>
<path d="M1485 1600 c20 -69 75 -110 145 -109 l45 0 -64 32 c-35 17 -79 47
-99 66 -32 33 -34 34 -27 11z"/>
<path d="M1537 1443 c-6 -36 4 -108 17 -120 3 -4 7 24 8 60 0 37 1 72 2 79 1
6 -4 13 -10 15 -6 2 -14 -13 -17 -34z"/>
<path d="M768 1433 c7 -3 16 -2 19 1 4 3 -2 6 -13 5 -11 0 -14 -3 -6 -6z"/>
<path d="M2740 1380 c0 -6 7 -10 15 -10 8 0 15 2 15 4 0 2 -7 6 -15 10 -8 3
-15 1 -15 -4z"/>
<path d="M502 962 c-42 -98 -135 -288 -154 -314 l-19 -28 45 0 c42 0 46 2 52
28 3 15 10 42 16 60 l10 32 74 0 74 0 15 -36 c8 -20 15 -47 15 -60 0 -22 4
-24 46 -24 25 0 44 3 42 8 -31 60 -157 325 -167 350 -8 17 -17 32 -21 32 -4 0
-17 -21 -28 -48z m56 -124 l21 -48 -51 0 c-36 0 -49 3 -45 13 45 112 42 111
75 35z"/>
<path d="M1180 994 c-111 -48 -154 -201 -86 -304 46 -70 158 -100 241 -66 29
13 35 20 35 46 l0 31 -31 -22 c-37 -26 -105 -35 -139 -17 -46 25 -70 74 -70
146 0 77 23 121 74 146 44 21 74 20 119 -3 l37 -19 0 29 c0 22 -6 32 -26 39
-37 15 -114 11 -154 -6z"/>
<path d="M1564 988 c-13 -42 -155 -333 -171 -350 -15 -17 -13 -18 35 -18 49 0
52 2 52 25 0 14 7 41 15 61 l14 35 73 -3 73 -3 20 -57 20 -58 43 0 43 0 -19
28 c-18 25 -92 176 -149 305 -29 62 -38 69 -49 35z m45 -150 l20 -48 -50 0
c-28 0 -49 3 -47 8 2 4 12 29 22 55 11 26 23 44 27 40 4 -4 17 -29 28 -55z"/>
<path d="M2449 945 c-80 -176 -137 -293 -148 -299 -23 -15 -9 -26 33 -26 41 0
44 2 49 33 3 17 10 44 16 60 10 26 13 27 86 27 l75 0 17 -60 18 -60 42 0 43 0
-34 63 c-19 34 -60 118 -92 187 -31 69 -61 129 -65 134 -5 6 -22 -20 -40 -59z
m77 -152 c-2 -2 -24 -3 -49 -1 l-45 3 25 55 25 55 24 -54 c13 -30 22 -56 20
-58z"/>
<path d="M780 810 l0 -190 30 0 30 0 0 82 c0 81 0 82 17 58 9 -14 39 -51 66
-82 46 -53 54 -58 91 -58 l40 0 -35 38 c-20 20 -50 56 -69 80 l-33 43 37 33
c27 25 36 42 36 65 0 78 -55 121 -155 121 l-55 0 0 -190z m103 139 c30 -16 37
-28 37 -65 0 -33 -20 -57 -57 -68 -22 -7 -23 -6 -23 68 0 79 4 85 43 65z"/>
<path d="M1820 811 l0 -191 68 0 c136 1 212 68 212 187 0 114 -75 182 -206
191 l-74 5 0 -192z m159 119 c38 -26 66 -98 58 -146 -11 -67 -54 -110 -121
-121 l-36 -6 0 153 0 153 35 -6 c19 -3 48 -15 64 -27z"/>
<path d="M2170 810 l0 -190 30 0 30 0 0 190 0 190 -30 0 -30 0 0 -190z"/>
<path d="M2713 972 l27 -28 0 -162 0 -162 25 0 24 0 3 128 3 127 95 -127 c90
-121 97 -128 130 -128 l35 0 -5 187 -5 188 -27 3 -28 3 0 -137 c0 -121 -2
-136 -15 -124 -29 30 -125 156 -157 207 -32 52 -34 52 -82 53 l-50 0 27 -28z"/>
<path d="M1410 255 l0 -135 64 0 c57 0 65 3 71 21 9 27 3 32 -29 19 -63 -24
-64 -22 -62 110 1 118 1 120 -21 120 -23 0 -23 -2 -23 -135z"/>
<path d="M1639 263 c-35 -71 -65 -131 -67 -135 -2 -5 10 -8 27 -8 20 0 31 5
31 15 0 8 5 26 12 40 10 22 17 25 63 25 46 0 53 -3 63 -25 7 -14 12 -32 12
-40 0 -10 11 -15 31 -15 17 0 29 3 27 8 -2 4 -31 64 -65 135 -34 70 -64 127
-66 127 -2 0 -32 -57 -68 -127z m89 7 c11 -30 10 -30 -23 -30 -33 0 -34 1 -24
26 20 53 30 54 47 4z"/>
<path d="M1880 254 l0 -136 57 4 c43 4 61 10 75 28 25 30 23 67 -5 92 -23 21
-23 22 -5 40 44 44 -1 108 -77 108 l-45 0 0 -136z m78 94 c25 -25 8 -78 -25
-78 -9 0 -13 15 -13 45 0 46 13 58 38 33z m3 -108 c39 -21 16 -90 -30 -90 -6
0 -11 21 -11 50 0 52 7 58 41 40z"/>
</g>
</svg>
