<?xml version="1.0" standalone="no"?>
<!DOCTYPE svg PUBLIC "-//W3C//DTD SVG 20010904//EN"
 "http://www.w3.org/TR/2001/REC-SVG-20010904/DTD/svg10.dtd">
<svg version="1.0" xmlns="http://www.w3.org/2000/svg"
 width="2560.000000pt" height="1440.000000pt" viewBox="0 0 2560.000000 1440.000000"
 preserveAspectRatio="xMidYMid meet">

<g transform="translate(0.000000,1440.000000) scale(0.100000,-0.100000)"
fill="#000000" stroke="none">
<path d="M6370 9859 c-338 -81 -779 -188 -980 -236 -290 -70 -370 -92 -387
-110 l-23 -22 0 -733 c0 -578 3 -763 15 -873 35 -326 99 -591 217 -893 266
-681 758 -1267 1383 -1647 139 -85 400 -215 431 -215 31 0 313 142 440 222
223 140 406 283 595 466 58 56 109 102 112 102 2 0 7 -10 11 -22 9 -37 63 -95
109 -117 114 -55 264 10 297 129 6 20 11 223 13 473 l2 439 24 19 c32 26 73
24 99 -4 22 -23 22 -26 22 -449 0 -481 2 -497 67 -560 75 -73 161 -87 252 -42
32 16 62 41 76 63 14 20 60 154 105 303 44 148 91 292 104 323 38 84 105 182
190 274 42 46 97 112 122 146 62 87 130 236 161 352 24 89 27 115 27 293 1
179 -1 201 -22 265 -40 118 -81 184 -172 276 -142 143 -300 206 -496 197 l-94
-4 -2 614 -3 615 -25 18 c-29 21 -1972 490 -2023 488 -18 -1 -309 -68 -647
-150z m707 -24 c12 -3 30 -8 40 -10 32 -6 486 -115 543 -130 30 -8 199 -48
375 -90 176 -42 419 -100 540 -130 121 -29 246 -59 278 -66 l57 -12 0 -192 c0
-139 -3 -195 -12 -204 -11 -11 -10 -13 0 -7 10 6 12 -71 10 -384 l-3 -391 -72
-39 -73 -39 0 514 0 514 -22 26 c-20 22 -61 35 -293 94 -786 201 -1087 277
-1246 316 l-176 44 -549 -140 c-302 -77 -606 -154 -677 -171 l-127 -32 -88 84
-87 85 83 -86 84 -86 -159 -39 c-129 -32 -163 -44 -186 -67 l-29 -27 5 -613
c4 -646 7 -691 58 -942 99 -492 330 -973 646 -1348 42 -50 71 -92 67 -99 -4
-6 -3 -9 2 -5 5 3 68 -52 140 -122 72 -69 182 -166 245 -214 63 -49 121 -94
129 -101 87 -70 405 -246 445 -246 79 0 474 254 682 438 75 67 238 230 320
321 l39 43 26 -87 26 -87 -141 -142 c-254 -254 -543 -464 -845 -614 -120 -60
-99 -63 -282 35 -496 264 -928 666 -1219 1135 -141 226 -270 506 -344 748 -61
195 -87 313 -119 540 -20 134 -22 198 -25 865 l-4 720 158 37 c87 21 511 123
943 227 432 104 792 188 800 186 8 -2 25 -6 37 -10z m-137 -1262 c1 -764 0
-885 -13 -910 -9 -16 -18 -47 -21 -68 -6 -35 -4 -33 12 15 l19 55 4 -143 c2
-79 2 -145 1 -147 -2 -2 -20 3 -40 10 -21 8 -131 47 -246 89 l-209 74 -243
243 c-134 134 -245 241 -246 238 -2 -2 -52 -56 -113 -119 l-110 -115 115 112
115 113 230 -231 c127 -128 223 -230 215 -227 -106 32 -927 324 -931 331 -14
20 -20 226 -19 691 0 269 2 491 5 494 3 3 78 25 168 48 l162 42 80 -77 80 -76
-74 77 -74 76 39 11 c21 5 104 26 184 46 80 20 154 38 165 41 11 4 -34 -50
-100 -117 l-120 -124 130 127 130 127 173 43 172 43 178 -175 177 -175 -173
176 -173 176 108 27 c59 16 137 36 173 46 36 10 66 17 67 16 1 -1 3 -398 3
-883z m1070 656 c311 -78 568 -145 572 -148 4 -3 8 -91 9 -195 l1 -188 -83
-87 -84 -86 82 79 82 80 3 -167 c2 -92 0 -167 -3 -167 -3 0 -43 39 -89 88
l-84 87 -121 -122 -121 -123 -55 0 c-73 0 -189 -33 -268 -76 l-65 -36 -175
179 -176 178 -160 -165 -160 -165 160 157 160 158 171 -171 171 -171 -81 -81
c-133 -134 -196 -280 -201 -465 -3 -109 -12 -125 -88 -147 -62 -18 -77 -19
-74 -2 2 6 -1 2 -7 -10 -7 -16 -29 -29 -75 -44 -140 -44 -127 -42 -106 -19 10
11 13 20 8 20 -6 0 -16 -7 -23 -15 -7 -8 -15 -15 -19 -15 -10 0 0 255 10 259
28 10 60 50 64 81 l5 35 -10 -31 c-10 -32 -35 -60 -59 -66 -10 -2 -13 16 -13
85 0 48 1 451 1 896 l1 809 168 -43 c92 -24 421 -107 732 -186z m580 -986 c0
-51 -2 -93 -5 -93 -3 0 -43 20 -88 45 -85 46 -212 85 -276 85 l-36 0 115 115
115 115 87 -87 88 -88 0 -92z m-318 -137 c39 -9 110 -37 175 -71 169 -87 274
-95 404 -30 25 13 49 21 53 18 3 -4 6 -2 6 4 0 29 191 93 280 93 215 0 423
-157 487 -368 22 -72 24 -284 4 -395 l-14 -78 -33 32 c-19 18 -36 30 -39 27
-4 -3 10 -22 30 -41 l36 -35 -30 -79 c-45 -115 -93 -190 -200 -310 -53 -60
-107 -124 -120 -143 -14 -19 -26 -37 -28 -40 -2 -2 -116 108 -253 245 -137
137 -253 246 -257 242 -9 -10 97 -116 117 -117 9 0 -1 -16 -25 -40 l-40 -40
-45 23 c-57 28 -149 29 -200 3 -48 -25 -98 -74 -120 -117 -15 -29 -19 -63 -21
-187 -2 -111 -6 -149 -14 -142 -8 6 -43 -23 -110 -90 l-99 -99 -32 89 c-57
158 -120 259 -260 413 l-74 81 37 38 37 38 236 -235 c130 -130 239 -232 243
-228 8 8 -462 483 -478 483 -5 0 -27 -18 -50 -39 l-40 -40 -39 65 c-50 84 -80
159 -112 281 -22 82 -26 119 -25 228 0 200 41 315 151 425 120 121 293 171
462 136z m-2704 -475 l-33 -36 38 34 c35 33 39 34 70 23 17 -6 263 -92 546
-191 l515 -180 115 -113 116 -113 -105 109 c-58 60 -98 107 -90 104 8 -3 57
-20 108 -38 l92 -33 0 -76 0 -76 -237 -240 -238 -240 237 235 238 234 2 -479
3 -480 -116 -119 -116 -119 -59 43 c-115 84 -260 209 -359 309 l-100 101 52
52 52 52 95 -96 c114 -116 268 -246 300 -254 28 -7 81 18 90 41 11 30 6 73
-11 92 -10 11 -56 52 -103 91 -47 39 -123 109 -169 156 -84 85 -85 85 -66 106
19 21 19 21 259 -217 l241 -238 -240 242 -239 242 -23 -21 c-13 -12 -25 -20
-27 -17 -39 45 -144 182 -176 230 -42 64 -42 63 86 -61 l128 -125 -150 155
c-126 130 -158 169 -199 245 -27 50 -57 96 -68 104 -18 13 -9 24 139 175 l159
161 -166 -163 c-198 -194 -194 -193 -284 -101 -41 42 -53 59 -38 55 31 -10 78
17 92 52 15 35 2 73 -31 96 -34 24 -66 19 -100 -14 -24 -24 -29 -37 -26 -61 4
-28 -6 -20 -104 78 l-109 109 -24 105 c-34 146 -35 141 21 122 l46 -15 -34
-37z m348 -582 c-9 -13 -16 -35 -16 -49 0 -50 174 -330 313 -503 l80 -99 -51
-51 -52 -52 -30 35 c-171 196 -353 484 -458 725 -41 93 -132 348 -132 368 0 7
82 -70 181 -169 180 -180 182 -182 165 -205z m1663 44 c34 -79 79 -159 118
-212 l26 -33 -139 -142 -139 -141 140 137 140 138 76 -83 c88 -95 136 -161
173 -235 l27 -53 -56 -70 c-31 -38 -80 -95 -110 -126 l-54 -58 -173 172 -173
173 -163 -162 -162 -163 0 320 0 320 158 -155 157 -155 -157 160 -158 160 0
156 0 156 198 70 197 70 22 -86 c12 -47 35 -119 52 -158z m1687 -418 c1 0 -19
-44 -46 -98 -26 -53 -61 -142 -76 -197 l-29 -100 -97 -97 -98 -98 0 375 c0
372 0 375 -24 425 -12 28 -30 56 -40 64 -16 13 -14 17 16 48 l32 33 180 -177
c99 -98 181 -178 182 -178z m-1546 -521 c-102 -104 -410 -348 -468 -371 -8 -4
-41 22 -78 58 l-64 63 0 161 0 160 162 162 163 163 170 -170 170 -170 -55 -56z
m720 92 c0 -230 -2 -275 -16 -294 -17 -25 -56 -29 -74 -7 -6 8 -38 102 -70
209 l-59 194 97 96 c73 71 100 92 109 84 10 -8 13 -74 13 -282z m624 -132
c-20 -65 -39 -125 -43 -131 -5 -9 -22 2 -54 35 l-48 48 88 87 c48 47 89 84 90
83 2 -2 -13 -56 -33 -122z m-2126 -324 l-3 -90 -108 66 -109 67 109 109 108
108 3 -84 c1 -47 1 -126 0 -176z m1995 215 c-4 -5 -2 -7 2 -2 10 9 76 -53 69
-65 -10 -16 -63 -8 -74 11 -13 25 -14 102 -1 81 6 -8 7 -19 4 -25z m-1716
-241 c-6 -6 -33 -24 -59 -39 l-48 -27 0 98 0 98 60 -59 c47 -46 57 -62 47 -71z"/>
<path d="M5725 8777 l-240 -242 238 235 237 235 243 -240 242 -240 -240 245
c-132 134 -240 245 -240 247 -1 1 -109 -107 -240 -240z"/>
<path d="M6695 8758 l-230 -233 233 230 c127 126 232 231 232 232 0 8 -21 -13
-235 -229z"/>
<path d="M5468 8523 c-1 -4 107 -116 242 -248 l245 -240 -240 245 c-132 134
-241 246 -241 248 -1 2 -4 0 -6 -5z"/>
<path d="M6210 8276 l-235 -241 240 237 240 238 240 -238 240 -237 -240 243
c-132 133 -242 241 -245 240 -3 0 -111 -110 -240 -242z"/>
<path d="M6695 7778 l-230 -233 233 230 c127 126 232 231 232 232 0 8 -21 -13
-235 -229z"/>
<path d="M6892 7525 c0 -16 2 -22 5 -12 2 9 2 23 0 30 -3 6 -5 -1 -5 -18z"/>
<path d="M7220 9283 l-105 -108 108 105 c59 57 107 106 107 107 0 8 -13 -5
-110 -104z"/>
<path d="M7755 9170 c82 -82 152 -150 155 -150 2 0 -63 68 -145 150 -82 83
-152 150 -155 150 -2 0 63 -67 145 -150z"/>
<path d="M8020 9103 l-85 -88 88 85 c81 79 92 90 84 90 -1 0 -41 -39 -87 -87z"/>
<path d="M7685 8770 l-240 -245 240 237 240 238 240 -238 240 -237 -240 245
c-132 134 -240 244 -240 245 0 0 -108 -110 -240 -245z"/>
<path d="M7265 8680 c82 -82 152 -150 155 -150 2 0 -63 68 -145 150 -82 83
-152 150 -155 150 -2 0 63 -67 145 -150z"/>
<path d="M7242 7563 c-19 -7 -42 -58 -41 -90 l1 -28 7 30 c11 46 30 75 54 85
12 5 15 9 7 9 -8 -1 -21 -3 -28 -6z"/>
<path d="M7338 7528 c-14 -14 -15 -18 -4 -18 8 0 17 7 20 16 9 23 4 24 -16 2z"/>
<path d="M8230 7915 c-31 -33 -30 -78 1 -111 34 -36 210 -120 292 -139 155
-35 328 -11 485 67 100 49 142 88 142 129 0 67 -87 103 -143 59 -44 -34 -150
-80 -224 -95 -134 -28 -274 0 -413 81 -70 41 -108 43 -140 9z"/>
<path d="M7919 7543 c-13 -16 -12 -17 4 -4 9 7 17 15 17 17 0 8 -8 3 -21 -13z"/>
<path d="M7774 7458 l-19 -23 23 19 c21 18 27 26 19 26 -2 0 -12 -10 -23 -22z"/>
<path d="M7719 7403 c-13 -16 -12 -17 4 -4 16 13 21 21 13 21 -2 0 -10 -8 -17
-17z"/>
<path d="M8023 7157 c-48 -47 -84 -89 -80 -93 4 -5 47 31 94 79 48 47 84 89
80 93 -4 4 -46 -32 -94 -79z"/>
<path d="M8988 7142 c-40 -39 -69 -74 -65 -78 4 -5 40 24 79 64 40 39 69 74
65 78 -3 4 -39 -25 -79 -64z"/>
<path d="M5840 6925 c-24 -25 -42 -45 -39 -45 3 0 25 20 49 45 24 25 42 45 39
45 -3 0 -25 -20 -49 -45z"/>
<path d="M13636 9861 c-4 -5 -9 -105 -11 -223 -3 -117 -7 -229 -8 -248 -2 -29
2 -36 19 -38 13 -2 24 4 29 15 13 34 19 457 6 481 -12 23 -26 28 -35 13z"/>
<path d="M11556 9844 c-3 -9 -6 -65 -6 -125 l0 -109 -55 6 c-54 7 -55 6 -55
-19 0 -23 5 -26 53 -34 l52 -8 0 -105 c0 -98 1 -105 20 -105 25 0 33 29 34
128 l1 77 41 0 c36 0 40 2 37 23 -2 18 -10 23 -41 25 l-38 3 2 119 c1 65 -2
123 -5 129 -10 16 -33 13 -40 -5z"/>
<path d="M13132 9848 c-8 -8 -12 -50 -12 -125 l0 -112 -52 2 c-47 2 -53 0 -53
-18 0 -16 10 -22 54 -30 l53 -9 -3 -106 c-4 -101 -3 -105 17 -108 28 -4 34 19
34 126 l0 82 39 0 c24 0 41 5 44 14 8 21 -13 36 -51 36 l-34 0 3 118 c4 133
-5 164 -39 130z"/>
<path d="M14882 9848 c-8 -8 -12 -49 -12 -125 l0 -112 -52 2 c-47 2 -53 0 -53
-18 0 -16 10 -22 54 -29 l53 -10 -3 -105 c-4 -97 -2 -106 15 -109 25 -5 36 14
36 69 0 25 3 67 6 93 6 44 8 46 39 46 35 0 51 20 32 39 -6 6 -26 11 -45 11
l-34 0 3 127 c3 108 2 128 -11 131 -9 1 -21 -3 -28 -10z"/>
<path d="M10603 9789 c-50 -25 -140 -119 -161 -169 -37 -89 33 -243 120 -264
37 -8 102 19 133 56 l25 30 0 -27 c0 -27 25 -44 41 -28 6 6 13 44 16 85 5 68
4 77 -16 97 -19 19 -31 21 -94 19 -66 -3 -72 -5 -75 -25 -3 -22 0 -23 52 -23
60 0 64 -5 41 -49 -35 -68 -113 -102 -147 -63 -41 46 -63 126 -47 168 15 41
63 97 110 130 30 21 54 29 88 29 36 1 47 5 49 19 8 40 -68 49 -135 15z"/>
<path d="M12620 9725 c-16 -20 -9 -49 14 -53 27 -6 48 25 35 49 -12 23 -32 24
-49 4z"/>
<path d="M13790 9725 c-29 -35 12 -72 44 -40 12 12 13 21 6 36 -13 23 -33 25
-50 4z"/>
<path d="M14033 9681 c-3 -11 -16 -22 -30 -26 -48 -12 -101 -173 -73 -224 15
-30 68 -51 126 -51 l46 0 -7 -42 c-10 -61 -30 -105 -53 -117 -29 -16 -74 -14
-99 4 -19 14 -23 13 -38 -1 -15 -15 -15 -18 1 -35 9 -11 35 -24 56 -30 106
-28 188 68 188 221 0 59 -35 215 -63 283 -17 40 -46 50 -54 18z m32 -128 c10
-32 20 -73 23 -92 l5 -34 -48 6 c-82 12 -90 33 -46 133 27 61 46 57 66 -13z"/>
<path d="M10925 9668 c-33 -18 -65 -50 -80 -81 -38 -76 42 -197 130 -197 38 0
91 32 100 60 9 27 -10 49 -29 35 -64 -48 -65 -48 -97 -35 -16 7 -37 26 -45 41
l-15 29 69 0 c84 0 112 16 112 66 0 66 -86 115 -145 82z m85 -63 c6 -8 9 -19
5 -25 -7 -11 -74 -14 -100 -4 -14 6 -14 8 1 25 20 23 76 25 94 4z"/>
<path d="M13380 9662 c-46 -23 -92 -89 -84 -122 28 -124 117 -182 201 -130 41
25 58 54 39 69 -11 9 -22 6 -51 -14 -47 -31 -56 -31 -94 1 -49 41 -41 54 33
54 66 0 116 24 116 56 0 31 -33 76 -65 90 -44 18 -53 18 -95 -4z m90 -57 c19
-22 3 -35 -45 -35 -49 0 -67 16 -40 37 25 17 69 17 85 -2z"/>
<path d="M14282 9663 c-18 -10 -45 -37 -61 -61 l-28 -43 17 -51 c36 -112 133
-152 206 -85 25 23 33 37 29 50 -10 23 -22 22 -57 -8 -16 -14 -38 -25 -47 -25
-25 0 -67 35 -74 60 -5 19 0 20 64 20 56 0 73 4 89 20 37 37 18 95 -40 125
-38 19 -58 19 -98 -2z m97 -62 c8 -15 7 -20 -5 -25 -20 -8 -68 -8 -89 0 -14 6
-14 8 1 25 23 26 80 25 93 0z"/>
<path d="M15130 9663 c-19 -10 -47 -37 -63 -61 -26 -39 -28 -45 -17 -80 29
-89 76 -132 145 -132 26 0 45 9 73 34 35 33 36 36 20 52 -16 16 -18 15 -48
-10 -41 -34 -65 -33 -101 3 -43 43 -38 51 35 51 54 0 70 4 92 24 25 21 27 27
18 56 -18 64 -93 94 -154 63z m90 -58 c19 -22 3 -35 -45 -35 -50 0 -62 11 -39
34 19 20 68 21 84 1z"/>
<path d="M11841 9657 c-18 -7 -51 -28 -72 -45 -33 -28 -39 -39 -39 -73 0 -51
24 -97 57 -110 59 -22 196 33 234 94 26 44 24 71 -9 108 -24 27 -37 33 -83 35
-30 2 -69 -2 -88 -9z m116 -47 c7 0 17 -9 22 -19 22 -40 -71 -110 -146 -111
-34 0 -53 21 -53 59 0 35 96 86 145 75 11 -2 25 -4 32 -4z"/>
<path d="M11202 9643 c-38 -18 -66 -65 -57 -94 10 -31 44 -47 117 -54 39 -4
73 -13 79 -22 37 -43 -101 -65 -146 -23 -14 13 -31 20 -39 17 -26 -10 -18 -44
17 -69 26 -18 45 -23 97 -23 99 0 144 39 126 110 -9 37 -46 56 -123 63 -50 5
-68 11 -68 22 0 26 46 41 106 35 45 -5 58 -3 62 9 16 42 -105 62 -171 29z"/>
<path d="M12110 9645 c-9 -11 -11 -41 -6 -115 10 -134 16 -155 47 -155 18 0
23 5 21 20 -1 11 -5 52 -9 92 l-6 71 32 17 c21 11 50 15 84 13 40 -2 52 0 55
13 7 34 -97 56 -146 30 -14 -7 -21 -5 -30 10 -15 23 -25 24 -42 4z"/>
<path d="M12786 9638 c-3 -7 -9 -71 -15 -142 -9 -103 -9 -131 1 -138 25 -16
45 27 51 112 4 44 9 85 12 91 4 5 19 9 35 9 l28 0 7 -87 c3 -49 7 -99 8 -113
1 -18 8 -25 22 -25 18 0 20 8 23 85 2 47 0 100 -3 119 -9 47 -46 81 -90 81
-19 0 -35 5 -35 10 0 15 -40 12 -44 -2z"/>
<path d="M14536 9638 c-3 -7 -9 -71 -15 -142 -9 -103 -9 -131 1 -138 25 -16
45 27 51 112 4 44 9 85 12 91 4 5 19 9 35 9 l28 0 7 -87 c3 -49 7 -99 8 -113
1 -18 8 -25 22 -25 18 0 20 8 23 85 2 47 0 100 -3 119 -9 47 -46 81 -90 81
-19 0 -35 5 -35 10 0 15 -40 12 -44 -2z"/>
<path d="M12633 9628 c-6 -7 -13 -49 -16 -93 -4 -44 -9 -102 -13 -128 -7 -47
-6 -49 17 -45 20 2 26 12 36 58 7 30 12 91 10 134 -2 78 -13 101 -34 74z"/>
<path d="M13804 9632 c-6 -4 -14 -43 -17 -87 -4 -44 -9 -104 -13 -133 -7 -52
-6 -54 17 -50 21 3 26 12 36 63 14 69 13 207 -2 212 -5 1 -15 -1 -21 -5z"/>
<path d="M15750 8591 c-5 -11 -10 -48 -10 -83 0 -35 -11 -155 -25 -268 -14
-113 -25 -223 -25 -245 l0 -39 -35 72 c-42 89 -100 179 -187 292 -90 117 -104
130 -131 130 -42 0 -74 -58 -48 -85 5 -6 11 -116 14 -245 6 -240 26 -429 47
-455 16 -20 55 -19 74 1 9 8 16 16 16 17 0 1 -7 56 -15 121 -17 133 -32 426
-22 426 12 0 109 -145 147 -220 21 -41 56 -122 79 -180 22 -58 54 -121 70
-140 26 -32 31 -34 57 -25 l29 10 6 220 c4 121 14 270 23 330 26 173 38 343
26 366 -15 26 -75 26 -90 0z"/>
<path d="M10767 8582 c-10 -10 -17 -24 -17 -30 0 -50 -156 -439 -191 -478 -10
-11 -19 -31 -19 -45 0 -13 -14 -67 -31 -119 -40 -124 -52 -276 -24 -297 44
-32 85 4 85 75 1 52 10 102 42 211 l22 73 105 -7 c61 -4 109 -11 113 -18 4 -6
10 -28 13 -48 6 -33 21 -67 113 -242 29 -56 53 -73 81 -57 24 12 35 43 26 73
-4 12 -29 60 -55 107 -56 99 -63 119 -125 384 -33 141 -48 229 -52 305 -4 80
-9 109 -21 119 -22 17 -46 15 -65 -6z m30 -405 c12 -51 22 -96 23 -102 0 -6
-28 -9 -71 -7 -48 3 -69 7 -66 15 31 80 83 194 87 191 2 -3 14 -46 27 -97z"/>
<path d="M12782 8588 c-6 -7 -17 -40 -26 -74 -31 -118 -157 -420 -184 -442
-10 -7 -17 -25 -18 -40 0 -15 -12 -65 -27 -112 -32 -103 -50 -203 -45 -255 2
-31 9 -43 30 -55 43 -24 63 5 76 110 6 47 22 122 37 168 30 94 18 88 167 76
l75 -7 12 -51 c6 -28 28 -82 47 -121 20 -38 49 -94 64 -124 37 -72 63 -87 94
-55 29 28 19 74 -34 164 -58 98 -64 116 -127 380 -35 149 -47 221 -51 305 -3
80 -9 115 -20 128 -18 20 -55 23 -70 5z m55 -523 c-1 0 -34 2 -73 5 l-71 5 45
104 46 104 28 -109 c15 -60 26 -109 25 -109z"/>
<path d="M14861 8586 c-6 -7 -20 -44 -30 -82 -33 -124 -152 -409 -179 -430 -8
-6 -18 -31 -22 -55 -4 -24 -19 -84 -34 -134 -15 -49 -30 -127 -33 -171 -6 -80
-5 -82 21 -99 23 -16 28 -16 49 -2 19 12 25 29 35 108 6 52 22 128 35 169 l23
75 39 3 c22 1 71 -1 108 -5 l68 -8 27 -81 c15 -44 45 -109 66 -143 21 -34 41
-74 45 -89 4 -15 19 -34 34 -42 23 -13 28 -13 46 4 29 26 26 64 -9 127 -70
124 -91 181 -139 384 -50 206 -73 359 -64 409 11 54 -54 101 -86 62z m22 -514
c-18 -2 -50 -2 -72 0 l-40 3 38 85 c20 47 41 94 45 105 7 15 15 -5 35 -85 l27
-105 -33 -3z"/>
<path d="M17287 8582 c-10 -10 -17 -24 -17 -30 0 -50 -156 -439 -191 -478 -10
-11 -19 -31 -19 -45 0 -13 -14 -67 -31 -119 -40 -124 -52 -276 -24 -297 44
-32 85 4 85 75 1 52 10 102 42 211 l22 73 105 -7 c61 -4 109 -11 113 -18 4 -6
10 -28 13 -48 6 -33 21 -67 113 -242 29 -56 53 -73 81 -57 24 12 35 43 26 73
-4 12 -29 60 -55 107 -56 99 -63 119 -125 384 -33 141 -48 229 -52 305 -4 80
-9 109 -21 119 -22 17 -46 15 -65 -6z m30 -405 c12 -51 22 -96 23 -102 0 -6
-28 -9 -71 -7 -48 3 -69 7 -66 15 31 80 83 194 87 191 2 -3 14 -46 27 -97z"/>
<path d="M11300 8552 c-31 -32 -50 -86 -50 -147 0 -22 -7 -80 -15 -130 -8 -49
-15 -105 -15 -123 0 -25 -6 -35 -25 -44 -35 -16 -41 -50 -17 -90 18 -29 20
-54 24 -214 3 -196 8 -214 57 -214 48 0 51 12 44 154 l-6 130 44 -35 c24 -20
76 -54 115 -76 38 -23 92 -60 119 -82 68 -56 115 -53 115 9 0 32 -80 99 -214
182 -47 29 -86 55 -86 58 0 3 18 15 40 28 95 54 260 237 280 311 22 81 -40
187 -139 240 -78 41 -165 71 -208 71 -25 0 -43 -8 -63 -28z m197 -119 c92 -43
130 -109 98 -170 -42 -77 -227 -243 -272 -243 -18 0 -16 31 7 188 11 74 20
153 20 177 0 24 4 55 9 69 9 23 12 24 48 14 21 -5 61 -21 90 -35z"/>
<path d="M17767 8562 c-22 -24 -22 -56 -1 -73 15 -12 16 -33 11 -163 -5 -147
-5 -150 -31 -169 -32 -23 -34 -60 -4 -81 19 -13 21 -23 19 -83 -1 -37 -11
-124 -21 -193 l-19 -124 21 -23 c20 -22 29 -23 147 -23 235 0 371 58 371 157
0 65 -107 248 -172 295 l-31 21 55 28 c66 33 129 100 152 161 15 39 16 52 6
83 -29 87 -119 143 -283 175 -159 31 -201 34 -220 12z m284 -133 c132 -43 153
-90 76 -163 -45 -43 -116 -72 -204 -83 l-48 -5 6 138 c4 77 7 141 8 143 2 8
102 -11 162 -30z m-85 -393 c68 -32 117 -85 162 -174 34 -71 35 -75 18 -88
-29 -21 -149 -44 -230 -44 l-76 0 0 33 c0 19 4 58 10 88 5 30 12 89 16 132 5
70 8 77 27 77 12 0 45 -11 73 -24z"/>
<path d="M16513 8550 c-26 -11 -30 -25 -38 -150 -3 -52 -15 -153 -26 -225 -13
-83 -20 -168 -18 -235 3 -167 2 -223 -6 -259 -11 -51 9 -61 124 -61 53 -1 156
-5 230 -10 150 -10 171 -6 171 39 0 50 -18 55 -219 66 l-186 10 -9 139 c-8
124 -6 157 13 290 13 83 25 202 28 265 6 103 4 115 -12 127 -21 16 -22 16 -52
4z"/>
<path d="M14370 8532 c-35 -12 -88 -16 -233 -16 -175 -1 -190 -2 -203 -20 -18
-26 -18 -32 5 -55 15 -15 41 -21 122 -27 l102 -7 -9 -181 c-11 -221 -11 -428
-2 -480 l7 -39 -67 6 c-37 4 -90 9 -119 13 -49 6 -53 5 -64 -19 -20 -45 7 -73
84 -86 81 -14 140 -14 302 0 138 12 165 23 165 64 0 40 -23 48 -114 42 -80 -6
-84 -5 -90 16 -16 56 -17 226 -2 402 8 105 13 206 10 226 l-6 35 86 17 c47 10
97 22 111 29 33 15 43 53 20 78 -21 23 -44 24 -105 2z"/>
<path d="M13315 8529 c-11 -7 -21 -13 -23 -14 -2 -2 -10 -29 -17 -62 -10 -39
-14 -123 -15 -259 0 -247 -15 -449 -35 -478 -20 -27 -19 -43 5 -76 l20 -28
107 5 c210 9 359 86 424 218 30 62 32 69 26 153 -4 62 -15 116 -40 187 -44
128 -69 176 -120 232 -68 74 -114 94 -287 128 -14 3 -34 0 -45 -6z m159 -125
c96 -33 157 -123 211 -308 27 -95 31 -141 15 -196 -23 -82 -165 -169 -292
-178 l-71 -5 6 39 c4 21 9 165 12 319 7 345 7 345 44 345 15 0 49 -7 75 -16z"/>
<path d="M12085 8511 c-133 -33 -198 -79 -224 -161 -75 -236 -75 -238 -63
-329 14 -113 35 -178 75 -238 61 -92 162 -135 313 -135 149 0 249 68 186 125
-24 22 -34 21 -84 -4 -59 -30 -194 -24 -264 12 -66 34 -109 117 -124 237 -9
79 -8 87 20 173 17 49 30 98 30 108 0 63 113 118 265 128 44 3 86 10 93 16 19
15 15 65 -7 77 -29 15 -137 11 -216 -9z"/>
<path d="M12437 6763 c-3 -5 -6 -82 -8 -173 -3 -142 -2 -165 11 -165 11 0 17
16 22 55 8 72 10 254 2 274 -6 17 -20 21 -27 9z"/>
<path d="M12602 6758 c-7 -7 -12 -43 -12 -86 l0 -73 -32 3 c-24 2 -33 -1 -36
-14 -2 -12 3 -18 16 -18 46 0 52 -9 52 -81 0 -52 3 -69 14 -69 17 0 26 31 26
91 0 41 2 46 22 45 14 -1 24 6 26 17 3 13 -3 17 -22 17 -26 0 -26 0 -26 84 0
85 -7 105 -28 84z"/>
<path d="M13827 6603 c-5 -160 0 -200 23 -177 12 12 26 280 16 317 -3 15 -12
27 -20 27 -10 0 -14 -37 -19 -167z"/>
<path d="M17322 6695 c3 -73 3 -75 -23 -80 -14 -3 -41 -18 -59 -34 -61 -51
-37 -125 46 -138 21 -3 44 -13 50 -21 9 -12 12 -12 22 1 9 11 11 56 6 181 -7
155 -8 166 -26 166 -18 0 -19 -7 -16 -75z m8 -165 c0 -50 0 -50 -33 -50 -63 0
-77 48 -24 80 49 31 57 27 57 -30z"/>
<path d="M16420 6680 l0 -81 -37 3 c-53 4 -52 -23 0 -35 l39 -9 -4 -67 c-2
-55 0 -66 13 -69 14 -2 18 9 24 66 6 61 9 68 28 68 13 -1 23 6 25 17 3 13 -3
17 -22 17 -29 0 -32 13 -27 118 3 47 1 52 -18 52 -20 0 -21 -5 -21 -80z"/>
<path d="M10480 6743 c-31 -11 -50 -37 -50 -66 0 -24 13 -42 60 -88 33 -31 60
-62 60 -67 0 -11 -43 -48 -62 -54 -7 -3 -9 -12 -5 -22 6 -14 10 -15 29 -5 44
22 68 52 68 82 0 23 -13 42 -61 88 -33 32 -59 64 -57 71 6 18 64 37 116 37 30
1 42 5 42 16 0 12 -13 15 -62 14 -35 0 -70 -3 -78 -6z"/>
<path d="M16593 6703 c-18 -7 -16 -43 1 -43 8 0 18 5 21 10 4 7 17 4 36 -7 28
-17 30 -17 51 5 17 17 19 25 11 33 -9 9 -16 9 -25 1 -9 -7 -19 -7 -28 -2 -16
10 -47 12 -67 3z"/>
<path d="M13950 6660 c0 -13 7 -20 20 -20 13 0 20 7 20 20 0 13 -7 20 -20 20
-13 0 -20 -7 -20 -20z"/>
<path d="M15763 6632 c-38 -31 -53 -67 -53 -123 0 -36 3 -41 35 -55 19 -7 44
-14 55 -14 15 0 20 -7 20 -29 0 -57 -64 -103 -98 -69 -18 18 -40 -6 -23 -26
33 -40 113 -23 141 30 21 39 19 156 -4 232 -25 81 -33 87 -73 54z m42 -84 c8
-28 15 -55 15 -60 0 -13 -45 -9 -65 6 -18 13 -18 15 -1 60 10 25 22 46 26 46
5 0 16 -23 25 -52z"/>
<path d="M14710 6640 c-8 -5 -25 -7 -37 -3 -23 5 -23 4 -22 -88 2 -157 12
-234 29 -234 12 0 14 14 12 76 l-4 75 42 13 c55 16 80 43 80 85 0 62 -55 104
-100 76z m60 -55 c13 -33 4 -51 -30 -65 -37 -15 -50 -7 -50 35 0 54 62 77 80
30z"/>
<path d="M10689 6630 c-9 -5 -24 -21 -33 -35 -33 -51 19 -145 80 -145 12 0 36
11 51 24 22 20 25 27 16 37 -10 10 -16 9 -31 -4 -22 -20 -53 -22 -70 -5 -24
24 -13 38 31 38 48 0 67 13 67 45 0 44 -67 71 -111 45z m66 -34 c18 -13 18
-14 -3 -20 -12 -4 -32 -4 -44 0 -21 6 -21 7 -3 20 10 8 22 14 25 14 3 0 15 -6
25 -14z"/>
<path d="M11531 6623 c-19 -10 -43 -30 -54 -44 -17 -24 -17 -29 -4 -61 18 -43
42 -53 97 -38 82 22 129 95 88 137 -24 23 -88 27 -127 6z m99 -38 c6 -8 9 -19
5 -25 -9 -15 -81 -50 -104 -50 -25 0 -37 36 -20 57 28 33 98 44 119 18z"/>
<path d="M12800 6629 c-38 -15 -70 -50 -70 -75 0 -36 21 -72 45 -78 40 -10
122 24 152 63 47 61 -42 124 -127 90z m95 -53 c0 -26 -45 -57 -86 -59 -30 -2
-34 1 -37 25 -3 21 3 30 25 42 39 22 98 17 98 -8z"/>
<path d="M13413 6621 c-49 -23 -67 -51 -58 -92 10 -47 43 -62 99 -48 101 25
140 110 69 148 -31 16 -62 14 -110 -8z m106 -35 c17 -20 -15 -51 -69 -67 -45
-14 -60 -5 -60 33 0 37 104 64 129 34z"/>
<path d="M14289 6611 c-32 -33 -36 -58 -14 -101 32 -62 85 -76 132 -36 22 20
25 27 16 37 -10 10 -16 9 -32 -5 -25 -22 -60 -17 -79 12 -14 22 -14 22 35 22
53 0 73 12 73 45 0 58 -83 74 -131 26z m81 -11 c24 -15 -3 -34 -37 -25 -27 6
-27 7 -9 21 23 16 26 17 46 4z"/>
<path d="M15935 6608 c-35 -41 -29 -91 15 -130 37 -34 70 -35 107 -4 22 20 25
27 16 37 -10 10 -16 9 -32 -5 -25 -22 -60 -17 -79 12 -14 22 -14 22 35 22 54
0 73 12 73 46 0 29 -35 54 -76 54 -24 0 -39 -8 -59 -32z m85 -8 c24 -15 -3
-34 -37 -25 -27 6 -27 7 -9 21 23 16 26 17 46 4z"/>
<path d="M16853 6620 c-61 -27 -78 -77 -44 -130 14 -21 78 -17 128 9 68 34 83
84 37 120 -33 26 -67 26 -121 1z m102 -44 c0 -26 -45 -57 -86 -59 -30 -2 -34
1 -37 25 -3 21 3 30 25 42 39 22 98 17 98 -8z"/>
<path d="M17452 6604 c-27 -32 -29 -39 -19 -71 13 -41 59 -83 92 -83 33 0 78
41 66 60 -8 12 -12 12 -29 -3 -24 -22 -55 -22 -75 1 -25 28 -21 32 31 32 26 0
53 5 60 12 33 33 -7 88 -62 88 -27 0 -41 -7 -64 -36z m88 -4 c24 -15 -3 -34
-37 -25 -27 6 -27 7 -9 21 23 16 26 17 46 4z"/>
<path d="M11340 6623 c-52 -19 -75 -77 -49 -125 16 -29 74 -51 100 -38 24 13
16 30 -15 30 -26 0 -51 18 -59 43 -9 24 24 54 67 63 46 8 49 34 4 33 -18 0
-40 -3 -48 -6z"/>
<path d="M11747 6622 c-3 -4 -8 -49 -12 -100 -7 -79 -5 -92 8 -92 18 0 27 21
27 63 0 51 11 77 30 77 15 0 19 -12 25 -75 5 -54 11 -75 21 -75 11 0 14 18 14
78 0 85 -14 112 -58 112 -11 0 -24 5 -27 10 -7 12 -22 13 -28 2z"/>
<path d="M11956 6609 c-14 -11 -26 -29 -26 -39 0 -27 38 -50 81 -50 35 0 66
-20 52 -33 -13 -14 -87 -7 -105 9 -16 16 -18 15 -24 -1 -18 -45 93 -75 144
-39 26 18 30 65 7 84 -9 7 -38 15 -65 18 -28 2 -50 8 -50 13 0 16 41 30 70 24
37 -8 55 1 39 21 -18 22 -92 18 -123 -7z"/>
<path d="M13002 6541 c3 -93 8 -107 31 -98 10 4 12 19 7 62 -5 50 -4 58 14 67
11 6 37 10 58 10 40 -2 48 7 23 28 -10 8 -32 11 -60 8 -25 -3 -45 -2 -45 3 0
5 -7 9 -16 9 -14 0 -15 -13 -12 -89z"/>
<path d="M13635 6619 c-11 -31 -22 -175 -14 -183 16 -17 29 8 37 70 6 50 10
59 29 62 21 3 22 -1 25 -70 2 -60 6 -73 21 -76 15 -3 17 5 17 65 0 84 -15 117
-55 121 -17 2 -36 8 -42 14 -9 7 -14 6 -18 -3z"/>
<path d="M14085 6618 c-7 -22 -23 -173 -18 -180 2 -5 10 -8 18 -8 13 0 18 21
27 110 2 17 10 26 25 28 21 3 22 -1 25 -70 2 -60 6 -73 21 -76 15 -3 17 5 17
70 0 80 -16 118 -51 118 -11 0 -29 5 -40 10 -14 8 -20 8 -24 -2z"/>
<path d="M14963 6621 c-58 -7 -78 -25 -89 -78 -7 -38 2 -70 24 -82 9 -5 44
-11 77 -12 l60 -4 0 89 c0 52 -4 90 -10 91 -5 1 -34 -1 -62 -4z m39 -49 c4 -4
5 -24 2 -44 -5 -28 -12 -37 -31 -41 -42 -8 -63 3 -63 32 0 43 27 74 59 66 14
-3 29 -10 33 -13z"/>
<path d="M15120 6548 c0 -46 4 -89 9 -97 11 -17 42 -7 37 11 -3 7 -7 32 -10
56 -6 41 -5 43 26 56 21 9 39 11 49 5 11 -6 21 -4 28 5 19 23 -13 39 -64 34
-25 -3 -45 -2 -45 3 0 5 -7 9 -15 9 -12 0 -15 -16 -15 -82z"/>
<path d="M15403 6621 c-58 -7 -78 -25 -89 -78 -7 -38 2 -70 24 -82 9 -5 44
-11 77 -12 l60 -4 0 89 c0 52 -4 90 -10 91 -5 1 -34 -1 -62 -4z m39 -49 c4 -4
5 -24 2 -44 -5 -28 -12 -37 -31 -41 -42 -8 -63 3 -63 32 0 43 27 74 59 66 14
-3 29 -10 33 -13z"/>
<path d="M16155 6605 c-29 -28 -30 -34 -11 -60 9 -13 31 -21 67 -25 39 -3 54
-9 54 -20 0 -18 -82 -27 -98 -11 -16 16 -37 13 -37 -3 0 -47 110 -62 157 -22
25 21 26 26 15 50 -13 30 -47 46 -98 46 -19 0 -34 5 -34 10 0 16 50 31 81 25
30 -7 50 12 28 26 -8 5 -33 9 -57 9 -32 0 -49 -6 -67 -25z"/>
<path d="M16652 6623 c-47 -4 -55 -8 -72 -36 -11 -18 -20 -48 -20 -68 0 -50
26 -71 82 -68 24 2 50 -1 57 -5 7 -5 17 -4 22 1 13 13 7 176 -6 178 -5 0 -34
-1 -63 -2z m24 -43 c10 0 14 -12 14 -40 0 -34 -4 -42 -25 -50 -27 -10 -75 2
-75 19 0 19 21 66 33 73 7 4 18 6 25 3 8 -3 20 -5 28 -5z"/>
<path d="M13962 6603 c-5 -10 -12 -53 -16 -96 -5 -71 -4 -78 11 -75 21 4 30
40 32 120 1 59 -11 82 -27 51z"/>
<path d="M11005 6560 c-15 -108 -105 -99 -105 11 0 19 -5 29 -15 29 -24 0 -20
-91 6 -124 24 -30 71 -35 106 -11 19 14 21 13 27 -10 4 -14 13 -25 22 -25 13
0 14 12 8 83 -7 91 -9 97 -29 97 -8 0 -16 -18 -20 -50z"/>
<path d="M12306 6594 c-3 -9 -6 -28 -6 -43 0 -33 -17 -57 -47 -65 -29 -9 -53
26 -53 76 0 31 -4 38 -20 38 -15 0 -20 -7 -20 -27 0 -47 20 -102 40 -113 27
-15 72 -12 97 5 20 14 22 14 25 -7 2 -13 10 -23 18 -23 16 0 17 25 5 123 -6
52 -26 70 -39 36z"/>
<path d="M10457 6013 c-6 -162 0 -209 22 -174 13 20 24 270 13 305 -20 69 -29
34 -35 -131z"/>
<path d="M10809 6178 c0 -1 -2 -70 -3 -152 -2 -124 0 -149 13 -154 8 -3 17 0
19 6 3 9 10 8 25 -3 12 -8 31 -15 42 -15 30 0 75 51 82 93 4 29 1 40 -21 62
-22 21 -34 26 -69 23 l-42 -3 -10 69 c-6 39 -16 71 -22 74 -7 2 -13 2 -14 0z
m139 -206 c4 -29 -23 -72 -45 -72 -39 0 -80 70 -56 94 4 4 28 6 53 4 38 -3 45
-6 48 -26z"/>
<path d="M11800 6155 c-6 -14 -10 -53 -10 -86 l0 -59 -32 2 c-23 2 -33 -1 -33
-11 0 -8 15 -19 33 -23 l32 -9 0 -70 c0 -62 2 -70 18 -67 14 3 18 16 20 71 2
58 5 68 19 63 18 -7 46 12 37 25 -3 5 -16 9 -30 9 -24 0 -24 2 -24 84 0 87
-13 117 -30 71z"/>
<path d="M12027 6113 c-29 -20 -35 -29 -26 -39 9 -12 16 -11 41 4 38 22 51 38
43 52 -9 14 -15 12 -58 -17z"/>
<path d="M12410 6069 c0 -14 5 -19 17 -17 26 5 29 38 4 38 -15 0 -21 -6 -21
-21z"/>
<path d="M11110 6039 c-38 -15 -70 -50 -70 -75 0 -36 21 -72 45 -78 40 -10
122 24 152 63 47 61 -42 124 -127 90z m95 -53 c0 -26 -45 -57 -86 -59 -30 -2
-34 1 -37 25 -3 21 3 30 25 42 39 22 98 17 98 -8z"/>
<path d="M11993 6030 c-61 -27 -78 -77 -44 -130 14 -21 78 -17 128 9 68 34 83
84 37 120 -33 26 -67 26 -121 1z m102 -44 c0 -26 -45 -57 -86 -59 -30 -2 -34
1 -37 25 -3 21 3 30 25 42 39 22 98 17 98 -8z"/>
<path d="M12590 6039 c-38 -15 -70 -50 -70 -75 0 -36 21 -72 45 -78 40 -10
122 24 152 63 47 61 -42 124 -127 90z m95 -53 c0 -26 -45 -57 -86 -59 -30 -2
-34 1 -37 25 -3 21 3 30 25 42 39 22 98 17 98 -8z"/>
<path d="M10653 6031 c-58 -7 -78 -25 -89 -78 -7 -38 2 -70 24 -82 9 -5 44
-11 77 -12 l60 -4 0 89 c0 52 -4 90 -10 91 -5 1 -34 -1 -62 -4z m41 -51 c5 -5
6 -24 2 -43 -5 -27 -12 -36 -32 -40 -43 -8 -64 2 -64 32 0 43 27 74 59 66 14
-3 30 -10 35 -15z"/>
<path d="M11312 5951 c3 -93 8 -107 31 -98 10 4 12 19 7 62 -5 50 -4 58 14 67
11 6 37 10 58 10 40 -2 48 7 23 28 -10 8 -32 11 -60 8 -25 -3 -45 -2 -45 3 0
5 -7 9 -16 9 -14 0 -15 -13 -12 -89z"/>
<path d="M11593 6031 c-58 -7 -78 -25 -89 -78 -7 -38 2 -70 24 -82 9 -5 44
-11 77 -12 l60 -4 0 89 c0 52 -4 90 -10 91 -5 1 -34 -1 -62 -4z m41 -51 c5 -5
6 -24 2 -43 -5 -27 -12 -36 -32 -40 -43 -8 -64 2 -64 32 0 43 27 74 59 66 14
-3 30 -10 35 -15z"/>
<path d="M12207 6033 c-9 -8 -9 -110 -1 -152 4 -21 12 -31 24 -31 16 0 17 7
13 61 -7 71 0 79 65 79 30 0 42 4 42 15 0 18 -41 29 -80 22 -16 -4 -32 -2 -35
3 -7 12 -19 13 -28 3z"/>
<path d="M12416 6008 c-3 -13 -7 -56 -11 -96 -5 -66 -4 -73 12 -70 20 4 35 69
31 137 -3 48 -24 67 -32 29z"/>
</g>
</svg>
